<svg enable-background="new 0 0 254 63" viewBox="0 0 254 63" xmlns="http://www.w3.org/2000/svg" xmlns:xlink="http://www.w3.org/1999/xlink"><linearGradient id="a" gradientUnits="userSpaceOnUse" x1="53.6476" x2="9.165" y1="53.7417" y2="9.2591"><stop offset="0" stop-color="#db9b28"/><stop offset=".43" stop-color="#f9ba1a"/><stop offset="1" stop-color="#fed401"/></linearGradient><path d="m31.409 0c-17.35 0-31.409 14.102-31.409 31.5 0 17.4 14.059 31.5 31.409 31.5 17.341 0 31.404-14.1 31.404-31.5 0-17.398-14.062-31.5-31.404-31.5zm-8.573 9.165c3.467 0 6.279 2.819 6.279 6.297s-2.811 6.297-6.279 6.297c-3.467 0-6.278-2.819-6.278-6.297-.001-3.478 2.811-6.297 6.278-6.297zm-15.653 22.129c0-3.478 2.811-6.297 6.278-6.297s6.279 2.819 6.279 6.297-2.811 6.297-6.279 6.297-6.278-2.819-6.278-6.297zm15.818 22.316c-3.467 0-6.279-2.819-6.279-6.297s2.811-6.297 6.279-6.297 6.278 2.819 6.278 6.297-2.811 6.297-6.278 6.297zm14.789-18.465h-10.603v-6.605h10.603zm3.467 16.058-2.723-5.447c5.205-2.623 8.785-8.013 8.785-14.255s-3.58-11.632-8.785-14.256l2.723-5.447c7.189 3.622 12.127 11.082 12.127 19.702 0 8.622-4.937 16.081-12.127 19.703z" fill="url(#a)"/><g fill="#fff"><path d="m94.187 29.052h-10.944v-10.995h12.437v-5.669h-18.549v38.225h6.112v-16.044h10.944z"/><path d="m100.306 12.388h6.117v38.225h-6.117z"/><path d="m112.189 12.388v38.225h18.192v-5.674h-12.077v-32.551z"/><path d="m198.521 12.361-4.346 23.001-.151.008-7.193-23.166h-2.177l-7.096 23.26-.155-.008-4.391-23.095h-6.494l8.634 38.533 2.435.056 8.055-24.842.075.225 8.23 24.617 2.433-.056 8.528-38.533z"/><path d="m227.533 18.031v-5.67h-18.815v38.224h18.815v-5.671h-12.697v-11.098h11.457v-5.567h-11.457v-10.218z"/><path d="m248.137 30.923-.162-.065.155-.079c3.382-1.77 5.096-4.681 5.096-8.649 0-5.018-3.953-10.083-12.79-10.083-2.029 0-5.324.246-7.652.573l-.125.017v37.721l.125.017c2.248.301 5.555.519 7.863.519 8.237 0 13.353-4.196 13.353-10.96 0-4.299-2.081-7.501-5.863-9.011zm-9.465-13.175.068-.014c.808-.141 1.794-.17 2.476-.17 3.711 0 5.843 2.023 5.843 5.551 0 3.623-2.207 5.705-6.053 5.705-1.05 0-1.931-.059-2.259-.086l-.075-.007zm2.855 27.738c-1.109 0-2.125-.1-2.787-.179l-.068-.008v-11.818l.068-.008c.635-.086 1.696-.124 2.422-.124 3.898 0 6.514 2.397 6.514 5.964 0 3.864-2.299 6.173-6.149 6.173z"/><path d="m157.054 50.613h5.781v-38.38h-2.885l-11.29 22.383-.073-.141-11.215-22.242h-2.881v38.38h5.775l.004-.144-.046-21.309.149-.034 7.892 15.587h.792l7.894-15.587.149.034-.046 21.312z"/></g></svg>